<?xml version="1.0" standalone="no"?><!DOCTYPE svg PUBLIC "-//W3C//DTD SVG 1.1//EN" "http://www.w3.org/Graphics/SVG/1.1/DTD/svg11.dtd"><svg t="1626425991631" class="icon" viewBox="0 0 1024 1024" version="1.1" xmlns="http://www.w3.org/2000/svg" p-id="2999" xmlns:xlink="http://www.w3.org/1999/xlink" width="200" height="200"><defs><style type="text/css"></style></defs><path d="M0 0h1024v1024H0z" fill="" opacity=".01" p-id="3000"></path><path d="M212.114286 131.657143c0-21.942857 21.942857-43.885714 43.885714-43.885714h599.771429c21.942857 0 43.885714 21.942857 43.885714 43.885714v768c0 21.942857-21.942857 43.885714-43.885714 43.885714H256c-21.942857 0-43.885714-21.942857-43.885714-43.885714V131.657143z" fill="" p-id="3001"></path><path d="M855.771429 980.114286H256c-43.885714 0-87.771429-36.571429-87.771429-87.771429V131.657143c0-43.885714 36.571429-87.771429 87.771429-87.771429h599.771429c43.885714 0 87.771429 36.571429 87.771428 87.771429v768c-7.314286 43.885714-43.885714 80.457143-87.771428 80.457143zM256 131.657143v768h599.771429V131.657143H256z" fill="#4168F6" p-id="3002"></path><path d="M724.114286 936.228571c-21.942857 0-43.885714-21.942857-43.885715-43.885714V131.657143c0-21.942857 21.942857-43.885714 43.885715-43.885714s43.885714 21.942857 43.885714 43.885714v768c0 21.942857-21.942857 36.571429-43.885714 36.571428z" fill="" p-id="3003"></path><path d="M299.885714 343.771429H131.657143c-21.942857 0-43.885714-21.942857-43.885714-43.885715s21.942857-43.885714 43.885714-43.885714h168.228571c21.942857 0 43.885714 21.942857 43.885715 43.885714s-21.942857 43.885714-43.885715 43.885715zM299.885714 555.885714H131.657143c-29.257143 0-43.885714-21.942857-43.885714-43.885714s21.942857-43.885714 43.885714-43.885714h168.228571c21.942857 0 43.885714 21.942857 43.885715 43.885714s-21.942857 43.885714-43.885715 43.885714zM299.885714 768H131.657143c-21.942857 0-43.885714-21.942857-43.885714-43.885714s21.942857-43.885714 43.885714-43.885715h168.228571c21.942857 0 43.885714 21.942857 43.885715 43.885715s-21.942857 43.885714-43.885715 43.885714zM833.828571 131.657143H577.828571c-21.942857 0-43.885714-21.942857-43.885714-43.885714s21.942857-43.885714 43.885714-43.885715h256c21.942857 0 43.885714 21.942857 43.885715 43.885715s-21.942857 43.885714-43.885715 43.885714z" fill="" p-id="3004"></path></svg>