<?xml version="1.0" encoding="UTF-8"?>
<svg width="220px" height="217px" viewBox="0 0 220 217" version="1.1" xmlns="http://www.w3.org/2000/svg" xmlns:xlink="http://www.w3.org/1999/xlink">
    <title>编组_2</title>
    <defs>
        <linearGradient x1="64.0749574%" y1="45.129199%" x2="11.1340139%" y2="65.7595569%" id="linearGradient-1">
            <stop stop-color="#FFFFFF" offset="0%"></stop>
            <stop stop-color="#EDF7FF" offset="100%"></stop>
        </linearGradient>
        <linearGradient x1="-0.0866666667%" y1="50.1837104%" x2="99.9909804%" y2="50.1837104%" id="linearGradient-2">
            <stop stop-color="#B1D2FA" offset="0%"></stop>
            <stop stop-color="#EFF7FF" offset="100%"></stop>
        </linearGradient>
        <linearGradient x1="-0.0949238579%" y1="50.0397661%" x2="99.9715736%" y2="50.0397661%" id="linearGradient-3">
            <stop stop-color="#EFF7FF" offset="0%"></stop>
            <stop stop-color="#E5EEFD" offset="100%"></stop>
        </linearGradient>
        <linearGradient x1="50%" y1="-15.2752813%" x2="50%" y2="100%" id="linearGradient-4">
            <stop stop-color="#E7F0FE" offset="0%"></stop>
            <stop stop-color="#BBD8FB" offset="48.224955%"></stop>
            <stop stop-color="#B1D2FA" offset="100%"></stop>
        </linearGradient>
        <linearGradient x1="-23.9316624%" y1="28.6711777%" x2="96.9881282%" y2="63.1252323%" id="linearGradient-5">
            <stop stop-color="#B8D6FB" offset="0%"></stop>
            <stop stop-color="#E7F0FD" offset="100%"></stop>
        </linearGradient>
        <linearGradient x1="39.0171596%" y1="0.209317376%" x2="58.6530413%" y2="99.7906826%" id="linearGradient-6">
            <stop stop-color="#E6F2FE" offset="0%"></stop>
            <stop stop-color="#FFFFFF" offset="100%"></stop>
        </linearGradient>
        <linearGradient x1="13.9692748%" y1="8.39462685%" x2="63.0175781%" y2="63.3083104%" id="linearGradient-7">
            <stop stop-color="#F8FCFF" offset="0%"></stop>
            <stop stop-color="#FFFFFF" offset="100%"></stop>
        </linearGradient>
        <linearGradient x1="30.4904459%" y1="5.25688747%" x2="68.4630573%" y2="91.1448636%" id="linearGradient-8">
            <stop stop-color="#B1D2FA" offset="0%"></stop>
            <stop stop-color="#EFF7FF" offset="100%"></stop>
        </linearGradient>
        <linearGradient x1="30.3515924%" y1="5.51503789%" x2="68.3242038%" y2="91.4023797%" id="linearGradient-9">
            <stop stop-color="#B1D2FA" offset="0%"></stop>
            <stop stop-color="#EFF7FF" offset="100%"></stop>
        </linearGradient>
        <linearGradient x1="30.2412955%" y1="5.34602254%" x2="68.2554656%" y2="91.3294919%" id="linearGradient-10">
            <stop stop-color="#B1D2FA" offset="0%"></stop>
            <stop stop-color="#EFF7FF" offset="100%"></stop>
        </linearGradient>
        <linearGradient x1="50%" y1="0%" x2="50%" y2="99.8785895%" id="linearGradient-11">
            <stop stop-color="#4D5153" offset="0%"></stop>
            <stop stop-color="#7F8283" offset="100%"></stop>
        </linearGradient>
        <filter x="-16.2%" y="-32.8%" width="132.4%" height="165.6%" filterUnits="objectBoundingBox" id="filter-12">
            <feGaussianBlur stdDeviation="1.23995574" in="SourceGraphic"></feGaussianBlur>
        </filter>
    </defs>
    <g id="页面-1" stroke="none" stroke-width="1" fill="none" fill-rule="evenodd">
        <g id="1_2新增客户" transform="translate(-371.000000, -268.000000)">
            <g id="编组-279" transform="translate(113.000000, 88.000000)">
                <g id="编组-2" transform="translate(258.000000, 180.000000)">
                    <g id="编组-4" transform="translate(28.518982, 191.568486)"></g>
                    <g id="编组-8" transform="translate(0.000000, 154.090384)" fill-rule="nonzero">
                        <path d="M122.71437,1.18283858 C124.326312,1.64113484 126.020918,1.95621352 127.715525,2.24264869 C136.973861,3.73211155 161.979635,7.54169925 173.387228,7.19797705 C187.522723,6.7683243 226.953315,17.4237125 218.934935,41.7134145 C210.916555,66.0031165 134.039299,61.706589 117.423892,61.706589 C100.808485,61.706589 89.8968746,59.4437512 73.3227996,57.324131 C56.7487245,55.2045108 50.4249503,60.4462743 28.2710744,56.6080431 C6.11719857,52.7698119 0.0414154579,45.3511411 0,33.4067947 C-0.041248258,24.9283138 15.2515392,13.8719164 27.527101,13.5854812 C40.2159814,13.2990461 50.4249503,14.4447867 60.8819103,10.1769028 C70.9668837,6.05223639 107.049596,-3.28555 122.71437,1.18283858 Z" id="路径" fill="url(#linearGradient-1)"></path>
                        <g id="编组" transform="translate(26.328477, 19.631081)">
                            <polygon id="路径" fill="#CAE0F7" points="3.67853536 0 4.69888823e-14 8.20780523 3.67853536 9.32142705"></polygon>
                            <polygon id="路径" fill="#C7DDFC" points="9.71298661 4.66071353 7.15041142 8.04282422 9.71298661 9.32142705"></polygon>
                        </g>
                        <g id="编组" transform="translate(183.182878, 0.204567)">
                            <rect id="矩形" fill="#B1D2FA" x="4.75316366" y="10.6412751" width="1" height="6.92920241"></rect>
                            <polygon id="路径" fill="url(#linearGradient-2)" points="5.24914596 2.30973414 0 11.4249349 10.5396238 11.4249349 5.24914596 2.30973414 0 11.4249349 10.5396238 11.4249349"></polygon>
                            <polygon id="路径" fill="url(#linearGradient-3)" points="5.24914596 9.37808464e-14 1.19862388 7.05293817 9.34099989 7.05293817 5.24914596 9.37808464e-14 1.19862388 7.05293817 9.34099989 7.05293817"></polygon>
                        </g>
                        <g id="编组" transform="translate(166.360812, 33.365750)">
                            <polygon id="路径" fill="#CAE0F7" points="5.04248667 -9.37808464e-14 4.69888823e-14 11.3424444 5.04248667 12.8685188"></polygon>
                            <polygon id="路径" fill="#C7DDFC" points="13.391522 6.43425938 9.83698219 11.0949729 13.391522 12.8685188"></polygon>
                        </g>
                    </g>
                    <g id="放大镜" transform="translate(110.195900, 98.773737) rotate(54.000000) translate(-110.195900, -98.773737) translate(56.877803, 4.115883)">
                        <path d="M47.118318,102.700679 L59.5178754,102.700679 L62.9600552,182.849912 C63.1069726,186.270802 60.4528936,189.163082 57.0320038,189.309999 C56.9433823,189.313805 56.8546894,189.315709 56.7659862,189.315709 L49.8702072,189.315709 C46.446164,189.315709 43.6704285,186.539973 43.6704285,183.11593 C43.6704285,183.027227 43.6723322,182.938534 43.6761382,182.849912 L47.118318,102.700679 L47.118318,102.700679 Z" id="矩形" fill="url(#linearGradient-4)"></path>
                        <path d="M53.3180967,0 C82.7648684,0 106.636193,23.8213058 106.636193,53.2063756 C106.636193,82.5914455 82.7648684,106.412751 53.3180967,106.412751 C23.871325,106.412751 1.50364423e-12,82.5914455 1.50364423e-12,53.2063756 C1.50364423e-12,23.8213058 23.871325,0 53.3180967,0 Z M53.3180967,14.8482909 C32.0890288,14.8482909 14.8794689,32.0217904 14.8794689,53.2063756 C14.8794689,74.3909609 32.0890288,91.5644604 53.3180967,91.5644604 C74.5471647,91.5644604 91.7567246,74.3909609 91.7567246,53.2063756 C91.7567246,32.0217904 74.5471647,14.8482909 53.3180967,14.8482909 Z" id="形状结合" fill="url(#linearGradient-5)"></path>
                        <ellipse id="椭圆形" fill="#FFFFFF" cx="53.3180967" cy="53.2063756" rx="38.4386279" ry="38.3580848"></ellipse>
                        <ellipse id="椭圆形" fill="url(#linearGradient-6)" opacity="0.19859096" cx="53.3180967" cy="53.2063756" rx="38.4386279" ry="38.3580848"></ellipse>
                        <ellipse id="椭圆形" fill="url(#linearGradient-7)" cx="54.2717962" cy="53.6385264" rx="22.3192033" ry="22.2724363"></ellipse>
                    </g>
                    <ellipse id="椭圆形" fill="#F8CFB0" transform="translate(67.107438, 120.180023) rotate(-37.000000) translate(-67.107438, -120.180023) " cx="67.1074382" cy="120.180023" rx="2.78778407" ry="2.22893925"></ellipse>
                    <polygon id="路径" fill="url(#linearGradient-8)" fill-rule="nonzero" points="92.7901047 46.5089328 93.9473967 48.6124407 96.0139896 49.7260625 93.9473967 50.8809295 92.7901047 52.9844374 91.6328126 50.8809295 89.5248879 49.7260625 91.6328126 48.6124407"></polygon>
                    <polygon id="路径" fill="url(#linearGradient-9)" fill-rule="nonzero" points="190.663944 120.255444 191.779904 122.358952 193.887829 123.513819 191.779904 124.627441 190.663944 126.730949 189.506652 124.627441 187.398727 123.513819 189.506652 122.358952"></polygon>
                    <polygon id="路径" fill="url(#linearGradient-10)" fill-rule="nonzero" points="35.2148266 68.2039356 36.9920964 71.5035558 40.2986451 73.3183469 36.9920964 75.0918927 35.2148266 78.3915129 33.3962248 75.0918927 30.0896762 73.3183469 33.3962248 71.5035558"></polygon>
                    <ellipse id="椭圆形" fill="#E1ECFF" fill-rule="nonzero" cx="83.2424455" cy="186.701546" rx="23.3718276" ry="8.24905049"></ellipse>
                    <g id="编组-87" transform="translate(55.964120, 99.703490)">
                        <g id="编组-8" transform="translate(17.475044, 45.464086)" fill-rule="nonzero">
                            <path d="M6.12466292,39.1829898 C6.12466292,39.1829898 6.09650114,42.1114027 2.70728879,43.1012888 C2.21130649,43.2662698 3.40993037,44.7098536 6.26182857,43.0187983 C7.25379316,42.4413648 7.33645688,42.647591 7.83243917,42.6888363 C8.32842147,42.7300815 8.45241704,41.7401955 7.9977666,41.2040072 C7.66711174,40.7915547 7.66711174,39.6366876 7.66711174,39.6366876 C6.63881253,39.3342224 6.12466292,39.1829898 6.12466292,39.1829898 Z" id="路径" fill="#F8CFB0"></path>
                            <path d="M17.4627621,35.4709171 C17.4627621,35.4709171 17.5454258,38.4818205 15.7681559,39.4304613 C15.1068462,39.8016686 14.6521957,39.9254044 14.4455364,40.0078949 C14.3215409,40.0491401 14.280209,40.1728759 14.3628727,40.2553664 C14.569532,40.5853284 15.2308417,40.9977809 17.2974346,40.0491401 C18.6200541,39.4304613 20.0253373,39.7191781 20.108001,39.4304613 C20.1906647,39.1417446 20.1906647,38.564311 19.6946824,38.39933 C19.1987001,38.234349 19.529355,35.9246149 19.529355,35.9246149 L17.4627621,35.4709171 Z" id="路径" fill="#F8CFB0"></path>
                            <path d="M2.21130649,0 C2.21130649,0 -2.08720673,11.2999398 1.30200562,29.9804708 C2.21130649,34.8669313 5.88984185,40.0078949 5.88984185,40.0078949 L7.9977666,40.0078949 C7.9977666,40.0078949 5.93117371,22.5489789 9.56837721,14.6084807 C9.56837721,14.6084807 9.23772234,27.5372406 17.1734391,36.4957514 L19.9840054,36.3430495 C19.9840054,36.3430495 16.9254479,24.8904079 17.4627621,14.2012757 C18.0000762,3.51214344 17.2842646,3.09339393 17.2842646,3.09339393 L2.21130649,0 Z" id="路径" fill="#172033"></path>
                        </g>
                        <rect id="矩形" fill="#F8CFB0" transform="translate(29.845984, 17.129642) scale(-1, 1) translate(-29.845984, -17.129642) " x="27.3660724" y="14.0362476" width="4.95982295" height="6.18678787"></rect>
                        <path d="M25.8533998,7.32381587 C25.6656892,12.8745654 27.2609613,15.6499402 30.6392162,15.6499402 C32.6867496,16.2782531 33.8384077,16.2782531 34.0941906,15.6499402 C34.477865,14.7074708 34.9423464,12.0816012 34.0941906,7.91853904 C33.5287535,5.14316425 32.2234977,4.06451177 30.1784234,4.68258159 L25.8533998,7.32381587 Z" id="路径-12" fill="#F8CFB0" transform="translate(30.205056, 10.317448) scale(-1, 1) translate(-30.205056, -10.317448) "></path>
                        <path d="M26.7412624,10.0818311 C26.0605342,8.80313709 25.0092464,6.25387647 26.0312093,5.43291779 C27.1754616,4.51372207 26.1077742,3.41782008 26.7412624,2.70096229 C27.5266743,1.81218708 29.7508048,1.0508486 31.0778017,1.0508486 C32.4047985,1.0508486 36.2845228,1.0508486 37.9546048,0.0140890389 C38.2645992,-0.17835039 38.354079,1.66418655 37.9546048,1.66418655 C37.9546048,1.66418655 39.711173,2.9812293 38.7518092,4.80607808 C37.7924454,6.63092685 33.7156522,5.58717707 31.0778017,7.17348892 C30.072119,7.7782716 32.9581357,12.2687891 31.7983597,13.6757564 C31.6844683,13.8139222 30.6198081,13.8535264 30.072119,13.6757564 C28.9643397,13.3161911 27.5305025,11.5643559 26.7412624,10.0818311 Z" id="路径-13" fill="#151225" transform="translate(32.321826, 6.897347) scale(-1, 1) translate(-32.321826, -6.897347) "></path>
                        <ellipse id="椭圆形" fill="#F8CFB0" transform="translate(33.565851, 12.180211) scale(-1, 1) rotate(-27.000000) translate(-33.565851, -12.180211) " cx="33.5658511" cy="12.1802113" rx="1.23942126" ry="1.85683991"></ellipse>
                        <polygon id="路径-26" fill="#FDB354" transform="translate(21.786912, 27.322661) scale(-1, 1) rotate(64.000000) translate(-21.786912, -27.322661) " points="23.1410257 22.3634001 27.3552729 30.7076772 19.6620654 32.281922 16.2185503 25.8869112"></polygon>
                        <polygon id="路径-26" transform="translate(21.065823, 28.737100) scale(-1, 1) rotate(65.000000) translate(-21.065823, -28.737100) " points="22.4011329 23.7633622 27.421883 31.9730564 18.7020538 33.7108388 14.7097633 27.727168"></polygon>
                        <path d="M0,32.3245863 C7.89148561,35.669033 12.5012674,37.3412564 13.8293454,37.3412564 C15.1574234,37.3412564 16.9560888,35.9720059 19.2253414,33.233505 C20.8721167,31.3418951 22.0302215,30.0073162 22.6996559,29.2297683 C23.7038074,28.0634465 21.670341,27.1924249 20.1878555,26.2118608 C18.7053701,25.2312967 17.8845699,27.8562226 16.6749378,29.2297683 C15.4653057,30.6033141 14.3764478,33.0059421 13.0593667,32.3245863 C11.7422856,31.6432305 8.43778844,29.0929536 7.38130427,28.5606023 C6.10657927,27.9182819 4.92540121,27.5276273 3.83777008,27.3886387 L0,32.3245863 Z" id="路径-15" fill="url(#linearGradient-11)" opacity="0.159534" filter="url(#filter-12)" transform="translate(11.483899, 31.669412) scale(-1, 1) translate(-11.483899, -31.669412) "></path>
                        <path d="M0.61439062,31.0872287 C8.71046364,34.7593549 13.5403158,36.595418 15.103947,36.595418 C17.4493939,36.595418 19.1904063,33.5458392 20.2335693,31.9884532 C21.2767322,30.4310671 22.3658147,28.2002869 22.8379287,27.3232448 C23.3100427,26.4462027 22.3965498,24.5776266 21.6749724,24.164327 C20.9533949,23.7510275 20.1293928,23.9205029 19.4761637,24.164327 C18.5606452,24.5060533 17.7368959,25.3218331 17.9426576,25.6561807 C18.1484194,25.9905282 18.9337732,26.29477 18.8318121,26.4462027 C18.2586327,27.2974893 18.1069681,27.5179394 17.6394788,28.0487768 C16.4298467,29.4223225 15.5708739,31.0872287 14.4437361,31.0872287 C13.3165982,31.0872287 9.05217906,27.855596 7.99569489,27.3232448 C6.72096989,26.6809243 5.53979183,26.2902698 4.4521607,26.1512812 L0.61439062,31.0872287 Z" id="路径-15" fill="#F8CFB0" transform="translate(11.791094, 30.254676) scale(-1, 1) translate(-11.791094, -30.254676) "></path>
                        <path d="M22.4557209,19.0038396 C25.3160838,19.0397593 27.7911556,19.9447891 29.8809364,21.7189289 L29.9034439,21.6884597 L37.8253375,26.1672499 L32.2356749,35.6243016 L31.3608283,34.5542918 C31.6848963,36.3202426 31.9316975,37.2531163 32.2049005,38.1563589 L32.2913212,38.4387863 C32.7143169,39.8079818 33.222332,41.3008511 34.1734236,45.6923852 C35.3978175,51.3458544 29.9649942,52.6445965 17.8749535,49.5886115 C17.1550901,47.3788017 16.7529116,45.0385196 16.6684181,42.5677652 C16.5416779,38.8616337 15.8045005,36.0229499 15.2458056,32.3424732 C14.6871106,28.6619965 15.3320491,24.4896534 15.2458056,22.5852112 C15.1595621,20.680769 16.281065,19.0038396 18.655092,19.0038396 L22.4557209,19.0038396 L22.4557209,19.0038396 Z" id="形状结合" fill="#5795F8" transform="translate(26.420460, 35.100442) scale(-1, 1) translate(-26.420460, -35.100442) "></path>
                    </g>
                </g>
            </g>
        </g>
    </g>
</svg>