<?xml version="1.0" encoding="UTF-8"?>
<svg width="220px" height="147px" viewBox="0 0 220 147" version="1.1" xmlns="http://www.w3.org/2000/svg" xmlns:xlink="http://www.w3.org/1999/xlink">
    <title>切片</title>
    <defs>
        <linearGradient x1="0.00968648358%" y1="50.0209712%" x2="100.015237%" y2="50.0209712%" id="linearGradient-1">
            <stop stop-color="#EDF7FF" offset="0%"></stop>
            <stop stop-color="#FFFFFF" offset="100%"></stop>
        </linearGradient>
        <linearGradient x1="-0.015682968%" y1="49.9897959%" x2="100.010624%" y2="49.9897959%" id="linearGradient-2">
            <stop stop-color="#B1D2FA" offset="0%"></stop>
            <stop stop-color="#EFF7FF" offset="100%"></stop>
        </linearGradient>
        <linearGradient x1="-0.040423654%" y1="50.0015663%" x2="100.024934%" y2="50.0015663%" id="linearGradient-3">
            <stop stop-color="#EFF7FF" offset="0%"></stop>
            <stop stop-color="#E5EEFD" offset="100%"></stop>
        </linearGradient>
        <linearGradient x1="0.143109541%" y1="49.8737805%" x2="100.099293%" y2="49.8737805%" id="linearGradient-4">
            <stop stop-color="#B1D2FA" offset="0%"></stop>
            <stop stop-color="#EFF7FF" offset="100%"></stop>
        </linearGradient>
        <linearGradient x1="-0.112367491%" y1="50.2079268%" x2="99.8434629%" y2="50.2079268%" id="linearGradient-5">
            <stop stop-color="#B1D2FA" offset="0%"></stop>
            <stop stop-color="#EFF7FF" offset="100%"></stop>
        </linearGradient>
        <linearGradient x1="-0.0074204947%" y1="49.9329268%" x2="99.9484099%" y2="49.9329268%" id="linearGradient-6">
            <stop stop-color="#B1D2FA" offset="0%"></stop>
            <stop stop-color="#EFF7FF" offset="100%"></stop>
        </linearGradient>
        <linearGradient x1="20.0812114%" y1="0%" x2="78.1876802%" y2="100%" id="linearGradient-7">
            <stop stop-color="#E6EFFE" offset="0%"></stop>
            <stop stop-color="#CFE4FD" offset="100%"></stop>
        </linearGradient>
        <linearGradient x1="-0.0925287356%" y1="50.1986755%" x2="100.271264%" y2="50.1986755%" id="linearGradient-8">
            <stop stop-color="#B1D2FA" offset="0%"></stop>
            <stop stop-color="#EFF7FF" offset="100%"></stop>
        </linearGradient>
        <linearGradient x1="-0.217037037%" y1="49.6923077%" x2="99.7074074%" y2="49.6923077%" id="linearGradient-9">
            <stop stop-color="#EFF7FF" offset="0%"></stop>
            <stop stop-color="#E5EEFD" offset="100%"></stop>
        </linearGradient>
        <linearGradient x1="-0.382757161%" y1="50.0131316%" x2="99.636448%" y2="50.0131316%" id="linearGradient-10">
            <stop stop-color="#EFF7FF" offset="0%"></stop>
            <stop stop-color="#E5EEFD" offset="100%"></stop>
        </linearGradient>
        <linearGradient x1="-0.249507471%" y1="50.0692509%" x2="99.6979795%" y2="50.0692509%" id="linearGradient-11">
            <stop stop-color="#B1D2FA" offset="0%"></stop>
            <stop stop-color="#EFF7FF" offset="100%"></stop>
        </linearGradient>
    </defs>
    <g id="页面-1" stroke="none" stroke-width="1" fill="none" fill-rule="evenodd">
        <g id="1_2新增客户" transform="translate(-1145.000000, -999.000000)">
            <g id="1_4新增客户空状态" transform="translate(887.000000, 777.000000)">
                <g id="编组-224" transform="translate(258.000000, 222.000000)">
                    <g id="空状态/1" transform="translate(0.000000, 0.000000)">
                        <rect id="矩形" stroke="#979797" fill="#D8D8D8" opacity="0" x="0" y="0" width="220" height="146.666667"></rect>
                        <g id="编组备份" transform="translate(10.000000, 8.311111)">
                            <path d="M45.0081235,57.6723784 C45.0081235,57.6723784 -6.79933802,68.3987061 0.752003357,98.4471173 C8.30334474,128.495528 49.9296445,116.299841 62.1395248,115.050885 C74.3494052,113.801929 85.8454771,109.981593 109.025465,124.381321 C132.205454,138.781048 177.738915,121.552803 186.980855,114.095801 C198.514496,104.765365 217.298927,57.6723784 165.491466,48.5990807 C113.684004,39.5257829 100.196783,41.2155469 95.1625551,35.448309 C90.0907586,29.6810712 42.4910097,46.5787107 45.0081235,57.6723784 Z" id="路径" fill="url(#linearGradient-1)" fill-rule="nonzero"></path>
                            <g id="编组" transform="translate(72.283118, 46.468509)" fill-rule="nonzero">
                                <path d="M3.19335332,25.5668633 L2.13554259e-14,23.7668973 C2.13554259e-14,23.0322174 0.375688626,9.18349974 0.375688626,8.74269176 C0.375688626,8.59575576 0.488395214,7.78760778 0.638670664,6.72232181 L3.83202398,8.52228776 C3.68174853,9.58757373 3.56904195,10.4324557 3.56904195,10.5426577 C3.53147308,10.9834657 3.19335332,24.8321833 3.19335332,25.5668633" id="路径" fill="#787E83"></path>
                                <path d="M3.79445512,8.52228776 L0.601101801,6.72232181 C0.939221565,4.22440988 1.5027545,0.293871992 1.54032337,1.04404305e-14 L4.73367669,1.79996595 C4.65853896,2.09383794 4.13257489,6.02437583 3.79445512,8.52228776" id="路径" fill="#7C8388"></path>
                            </g>
                            <polygon id="路径" fill="#737A7E" fill-rule="nonzero" points="77.0167944 48.2684747 73.8234411 46.4685087 71.4190339 41.5461528 74.5748184 43.3461188"></polygon>
                            <polygon id="路径" fill="#979FA5" fill-rule="nonzero" points="74.5748184 43.3461188 71.4190339 41.5461528 73.7858722 34.823831 76.9792256 36.623797"></polygon>
                            <polygon id="路径" fill="#7B8287" fill-rule="nonzero" points="76.9792256 36.623797 73.7858722 34.823831 73.7483034 26.3015433 76.9416567 28.1015092"></polygon>
                            <polygon id="路径" fill="url(#linearGradient-2)" fill-rule="nonzero" points="76.302986 25.1995233 73.1472016 23.3628234 114.548088 5.22021523e-15 117.703873 1.79996595"></polygon>
                            <polygon id="路径" fill="#747A7F" fill-rule="nonzero" points="76.9416567 28.1015092 73.7483034 26.3015433 73.1472016 23.3628234 76.302986 25.1995233"></polygon>
                            <polygon id="路径" fill="#AAD7FC" fill-rule="nonzero" points="32.8733809 107.336745 29.6800276 105.500045 29.5297521 48.0113367 32.6855366 49.8113026"></polygon>
                            <path d="M117.703873,1.79996595 L117.854148,59.3254084 L32.8733809,107.336745 L32.7231054,49.8113026 L70.855501,28.2484452 L72.9593573,32.1422491 L71.7947225,48.0480707 L75.4013333,50.5092486 L74.2366986,60.6110983 L75.4764711,72.035372 C75.4764711,71.300692 75.8521597,57.4519744 75.8521597,57.0111664 C75.8521597,56.5703584 76.9792256,48.6725486 77.0167944,48.2684747 L74.6123872,43.3461188 L76.9792256,36.623797 L76.9416567,28.1015092 L76.302986,25.1995233 L117.703873,1.79996595 Z" id="路径" fill="url(#linearGradient-3)" fill-rule="nonzero"></path>
                            <polygon id="路径" fill="#B1D2FA" fill-rule="nonzero" points="32.6855366 49.8113026 29.5297521 48.0113367 67.6997165 26.4484793 70.855501 28.2484452"></polygon>
                            <g id="编组" transform="translate(36.968387, 6.612120)" fill-rule="nonzero">
                                <polygon id="路径" fill="#EFF7FE" points="35.7279883 32.9136631 35.6152817 34.529959 35.3522997 37.9094869 9.12923361 52.7500225 9.09166475 47.9378687"></polygon>
                                <polygon id="路径" fill="#EFF7FE" points="66.6847311 15.4650136 66.6847311 20.2404334 37.9445512 36.476861 39.4097369 32.3626531 40.0484075 30.4524852"></polygon>
                                <polygon id="路径" fill="#EFF7FE" points="37.7567069 52.1622786 37.5688626 53.8153085 37.9069824 56.9009644 9.16680247 73.100658 9.16680247 68.2885041"></polygon>
                                <polygon id="路径" fill="#EFF7FE" points="36.8550542 42.4645028 38.7334973 43.7501928 38.4329464 46.3950407 9.12923361 62.9253403 9.12923361 58.1131864"></polygon>
                                <path d="M45.9091501,37.358477 L45.9091501,42.1338968 L39.7102878,45.6236267 C39.9357009,43.9705968 40.1611141,42.3543008 40.2362518,41.7298228 C40.2362518,41.6930888 40.2362518,41.6930888 40.2362518,41.6563548 C40.2362518,41.6196208 40.2362518,41.6196208 40.2362518,41.6196208 C40.2362518,41.6196208 40.2362518,41.5828868 40.2362518,41.5828868 C40.2362518,41.5461528 40.2362518,41.5461528 40.2362518,41.5461528 C40.2362518,41.5461528 40.2362518,41.5461528 40.2362518,41.5094188 L39.8605632,40.7012709 L45.9091501,37.358477 Z" id="路径" fill="#EFF7FE"></path>
                                <path d="M39.0340482,55.5418065 L39.0340482,56.2397524 L38.9964794,56.2397524 C38.9964794,56.0193484 39.0340482,55.7622105 39.0340482,55.5418065 Z" id="路径" fill="#2084AF"></path>
                                <path d="M40.1611141,20.8281774 L77.0537372,5.22021523e-15 L77.2040126,52.0888106 L0.15027545,95.5818653 L1.0677713e-14,43.4930548 L35.277162,23.5832273 L36.2539524,25.3831933 L35.5777129,34.566693 L35.6904195,32.9503971 L9.09166475,47.9378687 L9.09166475,52.7132885 L35.3522997,37.9094869 L35.1268865,41.2522809 L38.7334973,43.7134588 L36.8926231,42.4645028 L9.12923361,58.1131864 L9.12923361,62.8886063 L38.3953776,46.3583067 L38.6959285,43.7134588 L37.719138,52.1622786 L9.12923361,68.2885041 L9.12923361,73.063924 L37.8318446,56.8642304 L38.7334973,65.2395822 C38.7334973,64.5049022 39.0716171,50.6561846 39.0716171,50.2153766 C39.0716171,49.9949726 39.372168,47.7909327 39.6727189,45.6236267 L45.8715812,42.1338968 L45.8715812,37.358477 L39.8981321,40.7380049 L37.8694135,36.587063 L39.372168,32.3626531 L37.9069824,36.476861 L66.6471622,20.2404334 L66.6471622,15.4650136 L40.0484075,30.4892192 L40.2738207,29.8647412 L40.2362518,21.3424534 L40.1611141,20.8281774 Z" id="路径" fill="#F7FBFF"></path>
                                <path d="M39.0340482,56.2397524 L39.0340482,55.5418065 C39.0340482,55.7622105 38.9964794,56.0193484 39.0340482,56.2397524 L39.0340482,56.2397524" id="路径" fill="#C5C500"></path>
                            </g>
                            <g id="编组" transform="translate(60.787046, 70.859884)" fill-rule="nonzero">
                                <polygon id="路径" fill="url(#linearGradient-4)" points="10.7822636 3.01218792 5.48505394 6.02437583 0.15027545 3.01218792 5.44748508 1.04404305e-14"></polygon>
                                <polygon id="路径" fill="#D2EAFF" points="10.7822636 3.01218792 10.6319881 24.3179073 5.33477849 27.3300952 5.48505394 6.02437583"></polygon>
                                <polygon id="路径" fill="#86B8F5" points="5.48505394 6.02437583 5.33477849 27.3300952 0 24.3179073 0.15027545 3.01218792"></polygon>
                            </g>
                            <g id="编组" transform="translate(76.565968, 53.374501)" fill-rule="nonzero">
                                <polygon id="路径" fill="url(#linearGradient-5)" points="10.7822636 3.01218792 5.48505394 6.02437583 0.15027545 3.01218792 5.44748508 -1.04404305e-14"></polygon>
                                <polygon id="路径" fill="#D2EAFF" points="10.7822636 3.01218792 10.6319881 32.8401951 5.33477849 35.815649 5.48505394 6.02437583"></polygon>
                                <polygon id="路径" fill="#86B8F5" points="5.48505394 6.02437583 5.33477849 35.815649 2.13554259e-14 32.8401951 0.15027545 3.01218792"></polygon>
                            </g>
                            <g id="编组" transform="translate(92.006771, 34.089151)" fill-rule="nonzero">
                                <polygon id="路径" fill="url(#linearGradient-6)" points="10.7071258 3.01218792 5.40991621 6.02437583 0.0751377252 3.01218792 5.37234735 -1.04404305e-14"></polygon>
                                <polygon id="路径" fill="#D2EAFF" points="10.7071258 3.01218792 10.6319881 43.4930548 5.33477849 46.5052427 5.40991621 6.02437583"></polygon>
                                <polygon id="路径" fill="#86B8F5" points="5.40991621 6.02437583 5.33477849 46.5052427 0 43.4930548 0.0751377252 3.01218792"></polygon>
                            </g>
                            <g id="编组" opacity="0.5" transform="translate(60.373788, 31.297367)" fill="#A4CFFF" fill-rule="nonzero">
                                <polygon id="路径" points="29.6418326 0 29.6794014 9.25696774 -1.0677713e-14 26.0076713 -1.0677713e-14 16.7507035"></polygon>
                            </g>
                            <g id="编组" transform="translate(176.987538, 15.024206)" fill="url(#linearGradient-7)" fill-rule="nonzero">
                                <polygon id="路径" points="0 10.7630617 0.0375688626 -5.22021523e-15 18.9347067 10.6528597 18.9347067 21.4526554"></polygon>
                            </g>
                            <g id="编组" transform="translate(112.771761, 50.765567)" fill-rule="nonzero">
                                <ellipse id="椭圆形" fill="#E1ECFF" cx="15.7895133" cy="52.7508423" rx="14.764563" ry="5.10602586"></ellipse>
                                <g>
                                    <path d="M18.87016,5.54765363 C18.87016,7.38435358 17.2922678,8.85371354 15.7895133,8.85371354 C14.2867587,8.85371354 12.7088665,7.38435358 12.7088665,5.54765363 C12.7088665,3.71095368 14.4746031,1.83751973 15.9773576,1.83751973 C17.4801121,1.83751973 18.87016,3.71095368 18.87016,5.54765363 Z" id="路径" fill="#E4BD9D"></path>
                                    <rect id="矩形" fill="#E4BD9D" x="15.0005671" y="7.60475757" width="2.51711379" height="2.05710394"></rect>
                                    <path d="M32.7330703,10.9108175 C32.7330703,10.9108175 31.9065553,9.66186151 32.3198128,9.66186151 C32.7330703,9.66186151 33.5971541,10.0659355 33.5971541,10.0659355 C33.5971541,10.0659355 34.8744954,9.25778753 34.8744954,8.81697954 C34.8744954,8.41290555 35.7010104,8.41290555 35.2877529,9.62512752 C34.8744954,10.8740835 33.5971541,12.0863054 33.5971541,12.0863054 L32.7330703,10.9108175 Z" id="路径" fill="#E4BD9D"></path>
                                    <path d="M10.5674414,49.1141764 C10.5674414,49.1141764 10.1917527,52.4202363 8.05032756,52.4202363 C7.63707007,52.4202363 8.05032756,53.4487883 11.0182677,52.0161623 C11.8447827,51.6120883 11.8447827,51.6120883 12.295609,51.6120883 C12.7464354,51.6120883 12.7088665,50.8039404 12.295609,50.3631324 C11.9950581,50.0692604 11.8823515,49.1141764 11.8823515,49.1141764 L10.5674414,49.1141764 Z" id="路径" fill="#E4BD9D"></path>
                                    <path d="M21.2745672,49.1141764 C21.2745672,49.1141764 21.6502558,52.4202363 23.791681,52.4202363 C24.2049385,52.4202363 23.791681,53.4487883 20.8237408,52.0161623 C19.9972259,51.6120883 19.9972259,51.6120883 19.5463995,51.6120883 C19.0955732,51.6120883 19.133142,50.8039404 19.5463995,50.3631324 C19.8469504,50.0692604 19.959657,49.1141764 19.959657,49.1141764 L21.2745672,49.1141764 Z" id="路径" fill="#E4BD9D"></path>
                                    <path d="M2.15201613,17.3392673 C2.15201613,17.3392673 3.27908201,16.3107153 2.86582452,16.2372473 C2.45256703,16.1637793 1.55091433,16.3474493 1.55091433,16.3474493 C1.55091433,16.3474493 0.498986176,15.2454294 0.611692764,14.8780894 C0.724399352,14.5107494 -0.102115625,14.2903454 0.0105909626,15.5760354 C0.12329755,16.8617253 1.10008798,18.3678193 1.10008798,18.3678193 L2.15201613,17.3392673 Z" id="路径" fill="#E4BD9D"></path>
                                    <path d="M12.7464354,6.28233361 C12.7464354,6.28233361 12.1829024,4.88644165 14.1364833,3.38034769 C16.0900642,1.87425373 18.6447468,4.11502767 18.6447468,4.11502767 C18.6447468,4.11502767 19.5463995,1.58038174 18.9077288,1.13957375 C18.1939205,0.662031765 17.6679564,1.80078573 17.6679564,1.80078573 C17.6679564,1.80078573 18.1563516,0.074287781 16.691166,0.000819783036 C15.9397887,-0.0359142159 16.9165791,1.17630775 15.7895133,0.735499763 C14.6624474,0.331425774 15.0005671,1.10283975 13.5353815,0.515095769 C12.7840042,0.184489778 13.385106,2.24159372 12.1077647,1.80078573 C11.6193695,1.61711574 11.7320761,3.30687969 11.7320761,4.29869766 C11.769645,5.32724964 12.7464354,6.28233361 12.7464354,6.28233361 Z" id="路径" fill="#151225"></path>
                                    <path d="M15.0005671,9.66186151 C15.0005671,9.66186151 10.3420282,9.25778753 7.82491438,17.0821293 C7.29895031,18.6984253 5.30780059,19.9841152 2.33986044,17.0821293 L1.06251912,18.3310853 C1.06251912,18.3310853 5.72105808,22.8861011 7.41165689,22.8861011 C9.10225571,22.8861011 12.4834533,19.5800412 12.4834533,19.5800412 C12.4834533,19.5800412 12.8967108,19.5800412 12.0701959,23.2901751 C11.2436809,27.000309 11.2436809,27.845191 11.2436809,27.845191 L24.7684714,26.1921611 C24.7684714,26.1921611 21.8005313,20.4249232 21.8005313,19.1759673 C21.8005313,17.9270113 24.7684714,20.8289972 25.5949864,21.2330712 C26.4215014,21.6371452 28.1121002,22.0412192 29.802699,18.3310853 C31.4932978,14.6209514 33.5971541,12.1230394 33.5971541,12.1230394 L32.7706391,10.8740835 C32.7706391,10.8740835 27.5485672,16.0535773 26.2336571,16.0535773 C25.4071421,16.0535773 22.4016331,9.99246751 20.7486031,9.44145752 C18.7950223,8.85371354 15.0005671,9.66186151 15.0005671,9.66186151 Z" id="路径" fill="#5795F8"></path>
                                    <path d="M11.2436809,27.257447 C11.2436809,27.257447 7.18624372,34.6409808 10.5674414,49.1141764 L12.2580402,49.1141764 C12.2580402,49.1141764 16.9165791,35.0817888 17.3298366,34.2369068 C17.7430941,33.4287589 20.2977768,35.4858628 19.8469504,49.5182504 L21.9508067,49.5182504 C21.9508067,49.5182504 28.9386152,42.6857266 24.6933337,26.1921611 L11.2436809,27.257447 Z" id="路径" fill="#172033"></path>
                                </g>
                            </g>
                            <g id="编组" transform="translate(153.882687, 38.607433)" fill-rule="nonzero">
                                <rect id="矩形" fill="#B1D2FA" x="2.96794014" y="6.46518382" width="1" height="4.22440988"></rect>
                                <polygon id="路径" fill="url(#linearGradient-8)" points="3.26849105 1.39589196 0 6.94272581 6.53698209 6.94272581 3.26849105 1.39589196 0 6.94272581 6.53698209 6.94272581"></polygon>
                                <polygon id="路径" fill="url(#linearGradient-9)" points="3.26849105 1.04404305e-14 0.751377252 4.29787788 5.8231737 4.29787788 3.26849105 1.04404305e-14 0.751377252 4.29787788 5.8231737 4.29787788"></polygon>
                            </g>
                            <g id="编组" transform="translate(153.882687, 105.206173)" fill-rule="nonzero">
                                <polygon id="路径" fill="#CAE0F7" points="3.30605991 0 0 7.3100658 3.30605991 8.26514977"></polygon>
                                <polygon id="路径" fill="#C7DDFC" points="8.79111385 4.11420789 6.46184437 7.1263958 8.79111385 8.26514977"></polygon>
                            </g>
                            <g id="编组" transform="translate(15.478997, 80.667862)" fill-rule="nonzero">
                                <polygon id="路径" fill="#CAE0F7" points="3.34362877 0 0 7.3100658 3.34362877 8.30188377"></polygon>
                                <polygon id="路径" fill="#C7DDFC" points="8.82868271 4.15094188 6.49941323 7.1631298 8.82868271 8.30188377"></polygon>
                            </g>
                            <path d="M129.387789,50.3623126 C129.387789,50.3623126 128.711549,50.4357806 127.847466,50.3623126 C127.020951,50.2888446 125.630903,50.3990466 124.766819,51.5010666 C123.902735,52.6030865 123.41434,54.8071265 123.451909,55.5785405 C123.489477,56.3499544 123.790028,57.2683044 125.180076,57.2683044 C126.607693,57.2683044 129.68834,57.5989104 130.552424,57.4887084 C131.416507,57.3785064 133.520364,57.4152404 133.745777,56.4234224 C133.97119,55.4316045 134.046328,53.9255105 132.731418,51.6847366 C132.205454,50.7663866 130.928112,50.1786426 129.387789,50.3623126 Z" id="路径" fill="#172033" fill-rule="nonzero"></path>
                            <path d="M128.335861,51.9786086 C128.335861,51.9786086 126.795537,51.2806626 125.781178,53.8887765 C125.518196,54.5499885 125.555765,54.8438605 124.954663,55.1377325 C124.954663,55.1377325 124.841957,56.6438264 125.593334,56.6805604 C125.593334,56.6805604 125.781178,58.8111324 127.734759,59.4723443 C129.68834,60.1335563 131.266232,58.2233884 131.416507,57.3785064 C131.566783,56.5336244 131.566783,56.6438264 131.566783,56.6438264 C131.566783,56.6438264 132.130316,56.9009644 132.31816,55.5785405 C132.393298,55.0275305 132.468436,54.8805945 132.468436,54.8805945 C132.468436,54.8805945 130.928112,54.8071265 130.402148,54.1459145 C129.838615,53.4847025 129.35022,52.5296185 129.275082,52.3459485 C129.199945,52.1622786 128.824256,51.9418746 128.335861,51.9786086 Z" id="路径" fill="#E4BD9D" fill-rule="nonzero"></path>
                            <g id="编组" transform="translate(167.028612, 52.588087)">
                                <g transform="translate(0.000000, 9.383678)" id="路径">
                                    <path d="M8.60644655,2.56987039 C8.60644655,2.34946639 8.64401541,2.1290624 8.68158427,1.9086584 C8.79429086,1.28418042 8.83185972,-0.699455524 5.48823095,0.25562845 C1.50593152,1.39438242 0.867260854,7.23508826 0.867260854,10.8717542 C0.867260854,12.3043801 0.679416541,13.1492621 0.191021327,14.3614841 C-0.297373886,15.573706 -0.297373886,25.1980138 5.86391958,26.1530977 C10.6351651,26.8877777 12.025213,21.3776779 12.4384705,18.8430319 C12.5511771,18.108352 12.5511771,17.336938 12.4009017,16.565524 C12.0627819,14.655356 11.1986981,10.6146162 9.88378788,9.1452562 C8.41860224,7.52896025 8.49373996,3.89229435 8.60644655,2.56987039 Z" fill="url(#linearGradient-10)" fill-rule="nonzero"></path>
                                    <line x1="6.20203934" y1="6.28000428" x2="6.20203934" y2="31.0387196" stroke="#B1D2FA" stroke-width="2" stroke-linecap="round" stroke-linejoin="round"></line>
                                    <line x1="3.87276986" y1="10.1738082" x2="6.20203934" y2="12.3043801" stroke="#B1D2FA" stroke-width="2" stroke-linecap="round" stroke-linejoin="round"></line>
                                    <line x1="10.0340633" y1="13.1125281" x2="6.20203934" y2="16.71246" stroke="#B1D2FA" stroke-width="2" stroke-linecap="round" stroke-linejoin="round"></line>
                                    <line x1="3.87276986" y1="20.6797319" x2="6.20203934" y2="23.4715158" stroke="#B1D2FA" stroke-width="2" stroke-linecap="round" stroke-linejoin="round"></line>
                                </g>
                                <g transform="translate(9.308786, 0.000000)" id="路径">
                                    <path d="M7.14955277,0.0149991376 C7.14955277,0.0149991376 -0.965321549,6.44344896 2.64128926,13.7902488 C4.48216353,17.5371167 1.92748087,22.2023345 0.950690443,23.3410885 C-0.0260999844,24.4798425 -2.43050719,33.4796722 7.97606775,33.4796722 C17.2555768,33.4796722 16.654475,26.5002124 15.9030978,25.4349264 C15.1892894,24.3696405 11.6953851,22.1656005 12.4843313,17.6840526 C12.9727265,14.9290027 14.5130498,13.8269828 12.1086426,9.56583887 C10.7561636,7.17812894 8.08877434,6.11284297 7.8257923,1.04355111 C7.75065457,-0.205404856 7.14955277,0.0149991376 7.14955277,0.0149991376 Z" fill="url(#linearGradient-11)" fill-rule="nonzero"></path>
                                    <line x1="8.08877434" y1="40.201994" x2="8.08877434" y2="11.9535488" stroke="#B1D2FA" stroke-width="2" stroke-linecap="round" stroke-linejoin="round"></line>
                                    <line x1="10.1174929" y1="15.6636827" x2="8.08877434" y2="17.7575206" stroke="#B1D2FA" stroke-width="2" stroke-linecap="round" stroke-linejoin="round"></line>
                                    <line x1="10.1174929" y1="28.5573163" x2="8.08877434" y2="30.5409523" stroke="#B1D2FA" stroke-width="2" stroke-linecap="round" stroke-linejoin="round"></line>
                                    <line x1="3.24239106" y1="21.6880585" x2="8.08877434" y2="25.8022664" stroke="#B1D2FA" stroke-width="2" stroke-linecap="round" stroke-linejoin="round"></line>
                                </g>
                            </g>
                        </g>
                    </g>
                </g>
            </g>
        </g>
    </g>
</svg>