<?xml version="1.0" encoding="UTF-8"?>
<svg width="10px" height="10px" viewBox="0 0 10 10" version="1.1" xmlns="http://www.w3.org/2000/svg" xmlns:xlink="http://www.w3.org/1999/xlink">
    <title>编组_2</title>
    <g id="页面-1" stroke="none" stroke-width="1" fill="none" fill-rule="evenodd">
        <g id="1_1我的线索" transform="translate(-295.000000, -433.000000)">
            <g id="编组-255" transform="translate(212.000000, 332.000000)">
                <g id="编组-253" transform="translate(0.000000, 80.000000)">
                    <g id="编组-217" transform="translate(67.000000, 9.000000)">
                        <g id="编组-2" transform="translate(16.000000, 12.000000)">
                            <rect id="矩形" x="0" y="0" width="10" height="10"></rect>
                            <g id="编组" transform="translate(0.555556, 0.555556)">
                                <rect id="R" stroke="#FFFFFF" stroke-width="0.555555556" fill="#74D178" x="0" y="0" width="8.88888889" height="8.88888889" rx="4.44444444"></rect>
                                <g id="微信-(2)" transform="translate(1.666667, 2.222222)" fill="#FFFFFF" fill-rule="nonzero">
                                    <path d="M3.76081067,1.35488563 C3.82473189,1.35488563 3.88777139,1.359562 3.95019696,1.36634795 C3.780117,0.582514541 2.93309387,0 1.96635315,0 C0.885459465,0 0,0.729088576 0,1.65481312 C0,2.18908142 0.294650251,2.62788914 0.786844311,2.96823193 L0.590208341,3.55369859 L1.27752965,3.21251981 C1.52362669,3.26062237 1.72085699,3.31022712 1.96635315,3.31022712 C2.02802763,3.31022712 2.0890947,3.30722275 2.14986787,3.3024027 C2.11141194,3.17241801 2.0890947,3.03610455 2.0890947,2.89480123 C2.08910123,2.04477372 2.82678492,1.35488563 3.76081067,1.35488563 Z M2.70373641,0.82725961 C2.85181262,0.82725961 2.94982691,0.923765174 2.94982691,1.07018899 C2.94982691,1.2160054 2.85181262,1.31371924 2.70373641,1.31371924 C2.55625454,1.31371924 2.40847875,1.2160054 2.40847875,1.07018899 C2.40847875,0.923765174 2.55626106,0.82725961 2.70373641,0.82725961 Z M1.3275916,1.31371271 C1.18010972,1.31371271 1.0314261,1.21599886 1.0314261,1.07018245 C1.0314261,0.923758638 1.18010972,0.827253075 1.3275916,0.827253075 C1.47491019,0.827253075 1.57308122,0.923758638 1.57308122,1.07018245 C1.57308122,1.2160054 1.47491019,1.31371271 1.3275916,1.31371271 Z M5.55555556,2.87142592 C5.55555556,2.09347716 4.76886146,1.45938543 3.88536137,1.45938543 C2.94982691,1.45938543 2.21305107,2.09347716 2.21305107,2.87142592 C2.21305107,3.65050459 2.94982691,4.28323782 3.88536137,4.28323782 C4.0810895,4.28323782 4.2786333,4.23467154 4.47525622,4.18582441 L5.0146646,4.47805811 L4.86672553,3.99189891 C5.26151924,3.69875737 5.55555556,3.31022712 5.55555556,2.87142592 Z M3.34309884,2.62788914 C3.24524131,2.62788914 3.1464694,2.53153379 3.1464694,2.43321254 C3.1464694,2.33625632 3.24524131,2.23869269 3.34309884,2.23869269 C3.49178246,2.23869269 3.58919587,2.33625632 3.58919587,2.43321254 C3.58919587,2.53153379 3.49178246,2.62788914 3.34309884,2.62788914 Z M4.4245934,2.62788914 C4.32749349,2.62788914 4.22932246,2.53153379 4.22932246,2.43321254 C4.22932246,2.33625632 4.32749349,2.23869269 4.4245934,2.23869269 C4.57207527,2.23869269 4.67069043,2.33625632 4.67069043,2.43321254 C4.67069043,2.53153379 4.57207527,2.62788914 4.4245934,2.62788914 Z" id="形状"></path>
                                </g>
                            </g>
                        </g>
                    </g>
                </g>
            </g>
        </g>
    </g>
</svg>