<?xml version="1.0" encoding="UTF-8"?>
<svg width="10px" height="10px" viewBox="0 0 10 10" version="1.1" xmlns="http://www.w3.org/2000/svg" xmlns:xlink="http://www.w3.org/1999/xlink">
    <title>编组_2</title>
    <g id="页面-1" stroke="none" stroke-width="1" fill="none" fill-rule="evenodd">
        <g id="1_1我的线索" transform="translate(-295.000000, -393.000000)">
            <g id="编组-255" transform="translate(212.000000, 332.000000)">
                <g id="编组-252" transform="translate(0.000000, 40.000000)">
                    <g id="编组-202" transform="translate(67.000000, 9.000000)">
                        <g id="编组-2" transform="translate(16.000000, 12.000000)">
                            <rect id="矩形" x="0" y="0" width="10" height="10"></rect>
                            <g id="编组" transform="translate(0.555556, 0.555556)">
                                <rect id="R" stroke="#FFFFFF" stroke-width="0.555555556" fill="#5BBAFF" x="0" y="0" width="8.88888889" height="8.88888889" rx="4.44444444"></rect>
                                <g id="工具---企业微信" transform="translate(1.944444, 2.333333)" fill="#FFFFFF" fill-rule="nonzero">
                                    <path d="M3.43033972,3.34480291 C3.56636906,3.48142368 3.73108284,3.56422415 3.91294815,3.61597444 L3.98214569,3.63401311 C4.11196499,3.65767039 4.17968394,3.77595677 4.18559827,3.89660888 C4.18559827,4.03855253 4.08209768,4.15920464 3.94074545,4.17990476 C3.80471611,4.19764772 3.66336388,4.1118901 3.63379229,3.97645219 C3.59239206,3.76678958 3.50397299,3.58403712 3.35049641,3.43056054 C3.33275345,3.41281758 3.34458209,3.37437451 3.33866777,3.34480291 L3.40135955,3.33977574 C3.41466677,3.33918431 3.42560826,3.34036717 3.43033972,3.34480291 L3.43033972,3.34480291 Z M3.68110685,0.671530685 C3.97031705,0.978779561 4.12941223,1.34162304 4.13532655,1.7636097 C4.06435473,1.73108094 3.98510285,1.71333799 3.90230238,1.71333799 L3.89047374,1.71333799 C3.61463847,1.72435491 3.38796485,1.93471204 3.35641073,2.20895793 C3.35049641,2.25922964 3.35049641,2.30950136 3.35641073,2.35652019 C3.25320586,2.46002078 3.12634372,2.52478257 2.96990998,2.55139701 L2.96695282,2.55139701 C2.76355744,2.59465115 2.60313982,2.75097242 2.55464004,2.95318115 C2.50614025,3.15538988 2.57819675,3.36747009 2.73984296,3.49827949 C2.5626279,3.55239515 2.37912219,3.58321138 2.19395131,3.58995144 C1.95690808,3.60128348 1.71946935,3.57837622 1.48896448,3.52193677 C1.45347856,3.51602245 1.40912117,3.52193677 1.37363525,3.5337654 L0.839867958,3.79636117 C0.771853289,3.83184709 0.709752939,3.83776141 0.650905464,3.79044686 C0.594719432,3.74904662 0.588805114,3.68694627 0.594719432,3.613313 C0.618376706,3.46604645 0.636119668,3.31848419 0.650905464,3.17092193 C0.650905464,3.14135034 0.633162509,3.09699294 0.609505229,3.07333567 C0.376481056,2.8403115 0.175985642,2.58363005 0.0754422153,2.25922964 C-0.113224562,1.61604744 0.0576992598,1.06424147 0.524043321,0.603811732 C1.37659241,-0.230994405 2.86670511,-0.192551335 3.68110685,0.671826401 L3.68110685,0.671530685 Z M4.74331855,2.79920698 C4.89088081,2.81694993 5,2.9349406 5,3.08250286 C5,3.22385508 4.91424238,3.33918431 4.77289015,3.36550302 C4.60254726,3.39513819 4.44348357,3.470581 4.31275613,3.5837414 L4.26544157,3.6280988 C4.23586998,3.65767039 4.19151259,3.68428483 4.16194099,3.63992743 C4.15011235,3.61627016 4.15602667,3.56008413 4.17376962,3.54263688 C4.31270077,3.40190742 4.40446416,3.22148075 4.43636539,3.02631683 C4.46360566,2.88202711 4.59737092,2.78305628 4.74331855,2.79920698 L4.74331855,2.79920698 Z M3.63970661,2.53365405 C3.63379229,2.56322564 3.64562093,2.60758303 3.62787797,2.62503028 C3.48031572,2.77259254 3.40076812,2.94972639 3.35936789,3.15317897 C3.33218846,3.29547 3.19512966,3.38904533 3.05271044,3.36254587 C2.91201358,3.33935651 2.80784566,3.21915319 2.80490047,3.07658854 C2.80490047,2.95238784 2.8962767,2.83735434 3.02018169,2.81399277 C3.21979175,2.78134963 3.4043392,2.68752596 3.54833038,2.54548269 C3.56607334,2.52773973 3.61043073,2.53365405 3.64000233,2.53365405 L3.63970661,2.53365405 Z M3.90230238,1.97889092 C4.0324174,1.97889092 4.15306951,2.06464854 4.17968394,2.20008645 C4.21516986,2.40383474 4.30388464,2.58067288 4.44819403,2.72823515 C4.46593699,2.7459781 4.45410835,2.79624982 4.46002267,2.82582141 L4.39437373,2.82937 C4.38106651,2.82937 4.3698293,2.82670856 4.36273212,2.81990709 C4.21487414,2.6661348 4.03212168,2.5865872 3.8286691,2.54252553 C3.6922858,2.51025958 3.60198034,2.38059674 3.6190065,2.24148668 C3.63970661,2.09392442 3.75503583,1.98480524 3.90230238,1.97889092 L3.90230238,1.97889092 Z" id="形状"></path>
                                </g>
                            </g>
                        </g>
                    </g>
                </g>
            </g>
        </g>
    </g>
</svg>